#!OML:ASF H:\Terrain\Patient Classification 1\PLAYGROUND\JustinFriday\JustinFriday.ASF
:FULLY-SPECIFIED
:DEGREES
816
root -12.1791 30.3023 -8.86593 327.238 83.0136 -61.1129
lowerback 21.5539 -1.50722 -1.62398
upperback 8.55787 -1.57848 2.32742
thorax -2.59706 -0.62382 3.7696
lowerneck 7.71361 -20.0732 -14.7801
upperneck -26.9188 -24.5824 33.2543
head -2.43581 -14.0952 12.828
rclavicle -9.54166e-015 -1.59028e-015
rhumerus -7.73193 35.6111 -85.6034
rradius 53.9517
rwrist 27.1377
rhand -39.0838 6.75754
rfingers 7.12502
rthumb -12.0845 -22.8735
lclavicle -9.54166e-015 -1.59028e-015
lhumerus -18.2291 -18.6891 81.4675
lradius 58.6636
lwrist -33.3925
lhand -30.4378 -30.3991
lfingers 7.12502
lthumb -3.74024 -0.45218
rfemur -21.6979 23.5967 25.6176
rtibia 33.1574
rfoot -41.4216 -22.3701
rtoes 19.5228
lfemur -21.4984 4.67737 -14.146
ltibia 37.396
lfoot -31.757 3.07165
ltoes -5.98219
817
root -12.183 30.3066 -8.86528 328.459 83.0188 -59.8542
lowerback 21.6247 -1.46051 -1.85719
upperback 8.54948 -1.56947 2.24483
thorax -2.63671 -0.621967 3.8144
lowerneck 7.72576 -20.1973 -14.2329
upperneck -26.9042 -24.7007 33.041
head -2.53103 -14.1782 12.6914
rclavicle 3.57812e-014 -7.39479e-014
rhumerus -7.87577 35.9547 -85.8158
rradius 53.9118
rwrist 28.2958
rhand -40.6462 4.06945
rfingers 7.12502
rthumb -13.5907 -25.4669
lclavicle 3.57812e-014 -7.39479e-014
lhumerus -18.2305 -19.3228 81.263
lradius 59.0465
lwrist -32.855
lhand -30.3049 -29.9554
lfingers 7.12502
lthumb -3.61189 -0.00621691
rfemur -21.6782 23.9277 25.4563
rtibia 33.1354
rfoot -41.6796 -22.6127
rtoes 19.8488
lfemur -21.4603 4.63821 -14.2701
ltibia 37.3903
lfoot -31.867 3.31002
ltoes -5.61319
818
root -12.1907 30.3153 -8.87573 329.769 83.2815 -58.455
lowerback 21.9863 -1.67596 -2.14565
upperback 8.43806 -1.92267 1.98759
thorax -2.90882 -0.790803 3.7983
lowerneck 8.1125 -20.7645 -13.9919
upperneck -27.2449 -25.4307 33.6155
head -2.46032 -14.6551 12.7747
rclavicle 7.55382e-014 7.63333e-014
rhumerus -7.80862 35.6118 -86.3392
rradius 54.1907
rwrist 26.8349
rhand -37.4096 8.36628
rfingers 7.12502
rthumb -10.4698 -21.353
lclavicle 7.55382e-014 7.63333e-014
lhumerus -18.4344 -18.5157 80.9452
lradius 58.9974
lwrist -33.3118
lhand -30.2046 -30.2607
lfingers 7.12502
lthumb -3.51502 -0.309938
rfemur -21.6884 23.3459 25.2254
rtibia 33.1646
rfoot -44.7309 -18.389
rtoes 29.6119
lfemur -21.4082 4.43559 -14.613
ltibia 37.364
lfoot -31.8676 3.46557
ltoes -5.87662
819
root -12.2038 30.3208 -8.88922 327.77 83.4457 -60.4041
lowerback 22.3843 -2.26305 -2.23624
upperback 8.34202 -2.72027 1.61201
thorax -3.16267 -1.17106 3.65182
lowerneck 7.85392 -19.6293 -12.8254
upperneck -25.6489 -23.8687 32.7399
head -2.64011 -13.8419 12.5226
rclavicle -1.51076e-014 2.14687e-014
rhumerus -7.87516 36.7555 -87.7007
rradius 54.4641
rwrist 26.1216
rhand -36.3184 8.00285
rfingers 7.12502
rthumb -9.41706 -21.7668
lclavicle -1.51076e-014 2.14687e-014
lhumerus -18.5601 -16.4105 79.9078
lradius 58.4815
lwrist -34.1918
lhand -30.0509 -31.3593
lfingers 7.12502
lthumb -3.36659 -1.40614
rfemur -21.7501 22.6921 25.3873
rtibia 33.2344
rfoot -40.2003 -24.0077
rtoes 17.1143
lfemur -21.408 4.15835 -14.5338
ltibia 37.3022
lfoot -31.6658 3.21247
ltoes -6.29531
820
root -12.2197 30.321 -8.89995 328.513 83.5813 -59.6189
lowerback 22.3729 -1.79054 -1.64274
upperback 8.39249 -1.97096 1.85748
thorax -3.17532 -0.79567 3.39676
lowerneck 8.90656 -20.1319 -14.0639
upperneck -26.6447 -24.6865 33.5682
head -2.58429 -14.3297 12.9849
rclavicle 7.95139e-016 7.95139e-015
rhumerus -7.89539 35.1303 -86.222
rradius 54.3734
rwrist 25.7091
rhand -36.7048 10.6702
rfingers 7.12502
rthumb -9.78984 -19.0822
lclavicle 7.95139e-016 7.95139e-015
lhumerus -17.681 -17.6134 81.0476
lradius 58.0943
lwrist -34.4397
lhand -29.8768 -31.792
lfingers 7.12502
lthumb -3.19846 -1.83622
rfemur -21.7563 22.9408 25.1108
rtibia 33.3041
rfoot -40.9631 -22.9923
rtoes 18.5958
lfemur -21.4227 4.09063 -14.7083
ltibia 37.2512
lfoot -31.6416 2.95186
ltoes -6.4952
821
root -12.2302 30.3286 -8.91533 333.907 83.708 -54.2296
lowerback 22.5376 -2.09743 -2.4318
upperback 8.51401 -2.55205 1.25615
thorax -3.07346 -1.08326 3.34176
lowerneck 8.56534 -19.6237 -12.8432
upperneck -26.1664 -23.7653 33.4451
head -2.8027 -13.9312 12.9127
rclavicle 1.03368e-014 -6.36111e-015
rhumerus -7.37487 36.6971 -87.0333
rradius 55.1753
rwrist 26.3207
rhand -35.6443 5.09338
rfingers 7.12502
rthumb -8.76655 -24.7046
lclavicle 1.03368e-014 -6.36111e-015
lhumerus -17.8723 -17.3622 79.5675
lradius 58.9685
lwrist -33.8368
lhand -29.7288 -31.1621
lfingers 7.12502
lthumb -3.05551 -1.20428
rfemur -21.8691 22.3819 24.4621
rtibia 33.3257
rfoot -44.4938 -17.432
rtoes 29.1827
lfemur -21.4937 4.36913 -15.4056
ltibia 37.2678
lfoot -31.7872 2.97634
ltoes -6.56447
822
root -12.2376 30.3394 -8.92079 335.544 83.6139 -52.5856
lowerback 22.6289 -2.19815 -2.78032
upperback 8.50857 -2.76602 1.0574
thorax -3.0999 -1.18996 3.38137
lowerneck 8.77522 -19.3301 -13.0006
upperneck -25.5246 -23.4368 33.8734
head -2.62763 -13.8055 13.0855
rclavicle 1.90833e-014 -2.78299e-014
rhumerus -7.34036 37.161 -87.3385
rradius 55.136
rwrist 25.5099
rhand -36.5547 8.53057
rfingers 7.12502
rthumb -9.64502 -21.2286
lclavicle 1.90833e-014 -2.78299e-014
lhumerus -18.1628 -16.8623 79.1094
lradius 59.337
lwrist -33.8946
lhand -29.6413 -31.0657
lfingers 7.12502
lthumb -2.97103 -1.10665
rfemur -21.9898 21.2636 24.519
rtibia 33.2691
rfoot -39.0442 -23.2626
rtoes 14.5192
lfemur -21.5789 4.62399 -15.5769
ltibia 37.3857
lfoot -31.8277 2.42969
ltoes -4.9087
823
root -12.2524 30.342 -8.91474 331.554 83.4249 -56.4436
lowerback 22.6628 -1.63775 -2.02494
upperback 8.57335 -1.84889 1.67109
thorax -3.12327 -0.735611 3.3908
lowerneck 9.67816 -19.9711 -14.883
upperneck -25.9684 -24.6544 34.9293
head -2.14331 -14.453 13.5199
rclavicle -4.69132e-014 -8.74653e-015
rhumerus -7.54448 35.5103 -85.7758
rradius 55.4689
rwrist 25.8721
rhand -35.8719 8.98926
rfingers 7.12502
rthumb -8.98616 -20.7993
lclavicle -4.69132e-014 -8.74653e-015
lhumerus -17.5043 -17.6828 80.7762
lradius 58.7666
lwrist -34.7452
lhand -29.9082 -30.9811
lfingers 7.12502
lthumb -3.22883 -1.0258
rfemur -21.842 20.9939 25.2081
rtibia 33.1323
rfoot -38.0096 -24.7865
rtoes 10.8696
lfemur -21.5916 4.6235 -15.0155
ltibia 37.6061
lfoot -31.8424 1.9569
ltoes -3.36659
824
root -12.269 30.3393 -8.91876 326.669 83.0169 -61.3248
lowerback 22.8877 -1.90262 -1.76355
upperback 8.66363 -2.12571 1.64516
thorax -3.12956 -0.863467 3.2868
lowerneck 9.19944 -19.9676 -13.9315
upperneck -25.1496 -24.5923 34.6062
head -2.0533 -14.4127 13.189
rclavicle 3.18055e-014 -4.6118e-014
rhumerus -7.19222 36.5414 -86.4449
rradius 55.6411
rwrist 25.5651
rhand -36.0019 6.28073
rfingers 7.12502
rthumb -9.1116 -23.5024
lclavicle 3.18055e-014 -4.6118e-014
lhumerus -17.4887 -16.7598 80.181
lradius 58.687
lwrist -35.4102
lhand -30.2464 -30.8468
lfingers 7.12502
lthumb -3.55536 -0.896696
rfemur -21.7099 21.4829 25.8894
rtibia 32.9435
rfoot -42.6207 -19.6004
rtoes 26.0902
lfemur -21.7426 4.54606 -14.2187
ltibia 37.87
lfoot -31.9805 2.81645
ltoes -5.2687
825
root -12.2799 30.3372 -8.9206 325.836 82.3479 -62.3299
lowerback 22.8838 -1.81464 -1.62733
upperback 8.66742 -1.98281 1.74188
thorax -3.13524 -0.794627 3.27831
lowerneck 9.20372 -19.883 -14.0679
upperneck -24.7006 -24.5442 34.9015
head -1.86153 -14.4016 13.2574
rclavicle 4.77083e-015 -1.82882e-014
rhumerus -6.91113 36.0325 -86.4626
rradius 55.0838
rwrist 25.9986
rhand -35.6915 11.2094
rfingers 7.12502
rthumb -8.81208 -18.5866
lclavicle 4.77083e-015 -1.82882e-014
lhumerus -17.4821 -16.2135 80.033
lradius 58.7467
lwrist -35.8582
lhand -30.0238 -31.8583
lfingers 7.12502
lthumb -3.34043 -1.90475
rfemur -21.7552 22.4721 26.202
rtibia 32.7939
rfoot -43.251 -18.0408
rtoes 28.3356
lfemur -21.991 5.13865 -13.651
ltibia 38.1253
lfoot -32.2001 3.00945
ltoes -5.90367
826
root -12.2911 30.3481 -8.93033 328.96 82.1183 -59.1584
lowerback 23.1523 -1.74912 -1.94873
upperback 8.71589 -1.97254 1.58109
thorax -3.20903 -0.78982 3.29415
lowerneck 9.2699 -19.8124 -14.1152
upperneck -24.5616 -24.4603 35.169
head -1.79552 -14.3882 13.358
rclavicle 9.54166e-015 -2.46493e-014
rhumerus -6.23303 36.7977 -85.3237
rradius 55.0518
rwrist 24.3043
rhand -36.1145 16.1623
rfingers 7.12502
rthumb -9.22028 -13.6161
lclavicle 9.54166e-015 -2.46493e-014
lhumerus -17.3828 -15.9172 79.5425
lradius 58.9604
lwrist -35.8772
lhand -29.6931 -32.5603
lfingers 7.12502
lthumb -3.02106 -2.60196
rfemur -21.7195 22.9532 25.8173
rtibia 32.7453
rfoot -42.8343 -17.9015
rtoes 28.1099
lfemur -21.9715 5.35822 -13.936
ltibia 38.2541
lfoot -31.4362 7.10104
ltoes -16.5171
827
root -12.3233 30.3593 -8.92374 329.014 82.7477 -58.9614
lowerback 23.6107 -1.85088 -2.16146
upperback 8.80983 -2.13723 1.46968
thorax -3.3161 -0.862541 3.35033
lowerneck 9.28217 -20.0881 -13.9489
upperneck -24.5294 -24.8423 35.2802
head -1.70386 -14.6052 13.2902
rclavicle 1.74931e-014 -1.03368e-014
rhumerus -5.87645 36.8205 -85.1919
rradius 55.5153
rwrist 24.791
rhand -35.4009 12.6959
rfingers 7.12502
rthumb -8.5317 -17.1118
lclavicle 1.74931e-014 -1.03368e-014
lhumerus -17.1151 -16.563 79.4943
lradius 59.2314
lwrist -35.9195
lhand -30.545 -30.7756
lfingers 7.12502
lthumb -3.84373 -0.830521
rfemur -21.784 22.8736 25.3991
rtibia 32.8445
rfoot -40.553 -21.5488
rtoes 18.7769
lfemur -22.1445 5.20771 -14.3308
ltibia 38.3042
lfoot -31.4082 3.75851
ltoes -9.26968
